<svg width="210" height="41" viewBox="0 0 210 41" fill="none" xmlns="http://www.w3.org/2000/svg">
<g clip-path="url(#clip0_429_73)">
<path d="M14.21 26.3823H0V40.5H14.21V26.3823Z" fill="#005D6D"/>
<path d="M40.2641 0.5H28.4225H4.73926V12.2647H28.4225V35.7941H40.2641V12.2647V0.5Z" fill="#199EB5"/>
<path d="M26.0568 14.6177H2.37354V24.0294H16.5809V38.1471H26.0542V24.0294H26.0568V14.6177Z" fill="#00778C"/>
<path d="M75.6812 2.86078V33.449H69.963L56.7662 13.2608V33.449H51.048V2.86078H56.7662L69.963 23.0935V2.86078H75.6812Z" fill="#00778C"/>
<path d="M89.4464 33.7994C83.3335 33.9301 77.968 28.5994 78.0995 22.5235C77.968 16.4503 83.3335 11.1196 89.4464 11.2503C95.562 11.1196 100.928 16.4503 100.796 22.5235C100.928 28.5994 95.562 33.9301 89.4464 33.7994ZM85.444 26.6307C85.9697 27.1633 86.6007 27.582 87.2972 27.8605C87.9937 28.139 88.7407 28.2713 89.4912 28.249C91.1174 28.249 92.4384 27.7262 93.4937 26.6307C94.5466 25.5234 95.1145 24.0463 95.0725 22.5235C95.0934 21.7762 94.9646 21.0322 94.6936 20.3347C94.4225 19.6373 94.0147 19.0003 93.4937 18.4608C92.9818 17.9197 92.3606 17.4921 91.6709 17.206C90.9812 16.9199 90.2384 16.7818 89.4912 16.8007C88.7387 16.7845 87.9909 16.9227 87.2946 17.2066C86.5982 17.4904 85.9683 17.9138 85.444 18.4503C84.9073 18.9808 84.486 19.6151 84.2062 20.3139C83.9265 21.0128 83.7942 21.7613 83.8177 22.5131C83.7926 23.2732 83.9238 24.0305 84.2034 24.7385C84.4831 25.4465 84.9052 26.0904 85.444 26.6307Z" fill="#00778C"/>
<path d="M103.214 2.86078H108.977V12.9105C110.599 11.7851 112.541 11.2035 114.519 11.2503C120.587 11.1196 125.953 16.4503 125.866 22.5235C125.953 28.5993 120.587 33.9301 114.519 33.7993C108.403 33.9301 103.083 28.5993 103.204 22.5235L103.214 2.86078ZM110.517 26.6307C111.042 27.1633 111.672 27.5821 112.368 27.8606C113.064 28.1391 113.811 28.2714 114.561 28.249C116.19 28.249 117.508 27.7261 118.564 26.6307C119.086 26.0832 119.495 25.4384 119.765 24.7336C120.036 24.0288 120.165 23.2777 120.142 22.5235C120.164 21.7761 120.035 21.0319 119.764 20.3344C119.493 19.6368 119.085 18.9999 118.564 18.4608C118.052 17.9194 117.431 17.4916 116.741 17.2055C116.051 16.9194 115.308 16.7814 114.561 16.8006C113.809 16.7846 113.062 16.9228 112.366 17.2066C111.67 17.4905 111.04 17.9139 110.517 18.4503C109.979 18.9805 109.558 19.6147 109.277 20.3136C108.997 21.0125 108.865 21.7611 108.888 22.5131C108.863 23.2734 108.995 24.0307 109.275 24.7387C109.555 25.4467 109.977 26.0905 110.517 26.6307Z" fill="#00778C"/>
<path d="M131.716 2.50262C132.394 2.50265 133.057 2.70287 133.62 3.07785C134.183 3.45282 134.622 3.98565 134.879 4.60866C135.137 5.23167 135.203 5.91677 135.068 6.57696C134.933 7.23715 134.604 7.84266 134.122 8.3166C133.641 8.79053 133.028 9.11151 132.362 9.23879C131.696 9.36607 131.007 9.29389 130.383 9.03143C129.758 8.76897 129.226 8.32807 128.855 7.76471C128.483 7.20134 128.288 6.54093 128.295 5.86733C128.291 5.4216 128.378 4.97967 128.549 4.56761C128.72 4.15554 128.972 3.78168 129.291 3.46809C129.61 3.15449 129.989 2.90749 130.405 2.74168C130.822 2.57586 131.267 2.49458 131.716 2.50262ZM128.858 11.6007H134.576V33.449H128.858V11.6007Z" fill="#00778C"/>
<path d="M142.749 26.3693C142.749 27.768 144.463 28.7222 146.884 28.7222C149.17 28.7222 150.489 27.8464 150.489 26.6307C150.489 25.3653 149.173 25.015 146.047 24.4895C144.593 24.2511 143.154 23.9307 141.736 23.53C139.45 22.7876 137.526 21.1248 137.526 17.849C137.526 14.0477 141.528 11.2503 146.631 11.2503C151.91 11.2503 155.604 13.9144 155.604 18.4163H150.147C150.147 17.1928 148.473 16.2751 146.539 16.2751C144.647 16.2751 143.239 17.1065 143.239 18.2856C143.239 19.3313 144.515 19.7287 147.449 20.2072C148.923 20.4417 150.378 20.778 151.804 21.2137C154.136 21.9117 156.202 23.6163 156.202 26.764C156.246 31.4385 152.42 33.7993 146.747 33.7993C141.644 33.7993 137.289 31.1327 137.289 26.3693H142.749Z" fill="#00778C"/>
<path d="M169.54 33.7994C163.428 33.9301 158.062 28.5994 158.194 22.5235C158.062 16.4503 163.428 11.1196 169.54 11.2503C175.656 11.1196 181.022 16.4503 180.89 22.5235C181.022 28.5994 175.656 33.9301 169.54 33.7994ZM165.538 26.6307C166.064 27.1639 166.696 27.583 167.394 27.8615C168.091 28.14 168.839 28.272 169.59 28.249C171.219 28.249 172.538 27.7262 173.593 26.6307C174.646 25.5234 175.214 24.0463 175.172 22.5235C175.193 21.7762 175.064 21.0322 174.793 20.3347C174.522 19.6373 174.114 19.0003 173.593 18.4608C173.081 17.9194 172.46 17.4917 171.77 17.2056C171.081 16.9194 170.338 16.7815 169.59 16.8007C168.837 16.7838 168.088 16.9216 167.391 17.2055C166.694 17.4894 166.063 17.9131 165.538 18.4503C165.002 18.9814 164.581 19.6158 164.302 20.3146C164.022 21.0133 163.889 21.7615 163.912 22.5131C163.887 23.2732 164.019 24.0303 164.298 24.7382C164.578 25.4461 165 26.0901 165.538 26.6307Z" fill="#00778C"/>
<path d="M185.116 17.1431H181.814V11.6006H185.2C185.685 6.0503 188.982 2.73004 194.787 2.73004V8.27775C192.545 8.3222 190.916 9.54573 190.916 11.6006H194.787V17.1431H190.84V33.4438H185.116V17.1431Z" fill="#00778C"/>
<path d="M205.607 17.1431V23.13C205.607 26.6255 206.75 28.0242 209.555 28.0242V33.5745C203.618 33.5745 199.879 30.1758 199.879 23.117V17.1431H196.634V11.6006H199.889V2.90259H205.607V11.6006H209.555V17.1431H205.607Z" fill="#00778C"/>
</g>
<defs>
<clipPath id="clip0_429_73">
<rect width="209.565" height="40" fill="white" transform="translate(0 0.5)"/>
</clipPath>
</defs>
</svg>
