<svg width="32" height="32" viewBox="0 0 32 32" fill="none" xmlns="http://www.w3.org/2000/svg">
<rect width="32" height="32" rx="16" fill="#005D6D"/>
<path d="M20.0608 23H23V17.2306C23 14.3812 21.2277 13.4094 19.5876 13.4094C18.0711 13.4094 17.0409 14.3898 16.7565 14.9641V13.6716H13.9298V23H16.869V17.9424C16.869 16.5939 17.724 15.9381 18.5961 15.9381C19.421 15.9381 20.0608 16.4017 20.0608 17.905V23Z" fill="white"/>
<path d="M9 10.6863C9 11.6602 9.75866 12.3719 10.6945 12.3719C11.6305 12.3719 12.3891 11.6602 12.3891 10.6863C12.3891 9.71251 11.6305 9 10.6945 9C9.75866 9 9 9.71251 9 10.6863Z" fill="white"/>
<path d="M9.22497 22.9928H12.164V13.6644H9.22497V22.9928Z" fill="white"/>
</svg>
